<svg width="60" height="60" viewBox="0 0 60 60" fill="none" xmlns="http://www.w3.org/2000/svg">
<circle cx="30" cy="30" r="30" fill="#F5F5FF"/>
<path fill-rule="evenodd" clip-rule="evenodd" d="M22.5 36H37.5C41.0899 36 44 38.9848 44 42.6667V46H16V42.6667C16 38.9848 18.9101 36 22.5 36Z" stroke="black" stroke-width="2.8125" stroke-linecap="round" stroke-linejoin="round"/>
<path fill-rule="evenodd" clip-rule="evenodd" d="M22.5 36H37.5C41.0899 36 44 38.9848 44 42.6667V46H16V42.6667C16 38.9848 18.9101 36 22.5 36Z" fill="black"/>
<path fill-rule="evenodd" clip-rule="evenodd" d="M30 12C34.4183 12 38 15.5817 38 20C38 24.4183 34.4183 28 30 28C25.5817 28 22 24.4183 22 20C22 15.5817 25.5817 12 30 12Z" fill="black"/>
</svg>
