<svg width="60" height="60" viewBox="0 0 60 60" fill="none" xmlns="http://www.w3.org/2000/svg">
<circle cx="30" cy="30" r="30" fill="#F5F5FF"/>
<path d="M47.7358 42.0006C47.3241 40.8351 46.2127 40 44.9062 40C43.5998 40 42.4884 40.8351 42.0767 42.0006C41.9663 42.3132 41.9062 42.6496 41.9062 43C41.9062 44.6569 43.2494 46 44.9062 46C46.5631 46 47.9062 44.6569 47.9062 43C47.9062 42.6496 47.8462 42.3132 47.7358 42.0006Z" fill="black"/>
<path d="M23.7358 42.0006C23.3241 40.8351 22.2127 40 20.9062 40C19.5998 40 18.4884 40.8351 18.0767 42.0006C17.9663 42.3132 17.9062 42.6496 17.9062 43C17.9062 44.6569 19.2494 46 20.9062 46C22.5631 46 23.9062 44.6569 23.9062 43C23.9062 42.6496 23.8462 42.3132 23.7358 42.0006Z" fill="black"/>
<path fill-rule="evenodd" clip-rule="evenodd" d="M35.1562 18H14.647L14.9019 18.0938H9.40625C8.6296 18.0938 8 18.7234 8 19.5C8 20.2767 8.6296 20.9063 9.40625 20.9063H15.9062C15.958 20.9063 16 20.9482 16 21V24C16 24.0518 15.958 24.0938 15.9062 24.0938H11.4063H11.1686C10.392 24.0938 9.76236 24.7234 9.76236 25.5C9.76236 26.2767 10.392 26.9063 11.1686 26.9063H11.4063H15.9062H17.2751C17.3268 26.9063 17.3688 26.9482 17.3688 27V30C17.3688 30.0518 17.3268 30.0938 17.2751 30.0938H16.4431H13.4882H13.4866H13.4062C12.6296 30.0938 12 30.7234 12 31.5C12 32.2767 12.6296 32.9063 13.4062 32.9063H13.4882H16.4431C16.9091 32.9063 17.2868 33.284 17.2868 33.75V35.25C17.2868 35.716 16.9091 36.0938 16.4431 36.0938H15.4882C14.7115 36.0938 14.0819 36.7234 14.0819 37.5C14.0819 38.2767 14.7115 38.9063 15.4882 38.9063H16.4431C16.5624 38.9063 16.6805 38.9005 16.7969 38.8894C17.2687 38.4177 17.8212 38.0268 18.4319 37.7391C19.1821 37.3855 20.0206 37.1876 20.9062 37.1876C21.7919 37.1876 22.6304 37.3855 23.3806 37.7391C25.1062 38.5521 26.367 40.189 26.6559 42.1426L35.9062 42V18.75C35.9062 18.3358 35.5705 18 35.1562 18ZM51.7117 33.4997C51.8369 33.6377 51.9062 33.8174 51.9062 34.0037V41.2499C51.9062 41.6641 51.5704 41.9999 51.1562 41.9999H50.633C50.3054 40.1109 49.0659 38.5347 47.3846 37.741C46.6334 37.3862 45.7934 37.1876 44.9062 37.1876C44.0206 37.1876 43.1821 37.3855 42.4319 37.7391C40.7485 38.5322 39.5074 40.1095 39.1795 41.9999H38.9062V25.9999H44.574C44.7856 25.9999 44.9873 26.0892 45.1295 26.2459L51.7117 33.4997Z" fill="#000235"/>
</svg>
