<svg width="60" height="60" viewBox="0 0 60 60" fill="none" xmlns="http://www.w3.org/2000/svg">
<circle cx="30" cy="30" r="30" fill="#F5F5FF"/>
<path fill-rule="evenodd" clip-rule="evenodd" d="M48 26.0001C48 38.4888 30.0007 49.0001 30.0007 49.0001C30.0007 49.0001 12 38.3334 12 26.0254C12 21.0001 16 17.0001 21 17.0001C26 17.0001 30 23.0001 30 23.0001C30 23.0001 34 17.0001 39 17.0001C44 17.0001 48 21.0001 48 26.0001Z" fill="black"/>
<path fill-rule="evenodd" clip-rule="evenodd" d="M48 26.0001C48 38.4888 30.0007 49.0001 30.0007 49.0001C30.0007 49.0001 12 38.3334 12 26.0254C12 21.0001 16 17.0001 21 17.0001C26 17.0001 30 23.0001 30 23.0001C30 23.0001 34 17.0001 39 17.0001C44 17.0001 48 21.0001 48 26.0001Z" fill="black"/>
</svg>
